<?xml version="1.0" standalone="no"?>
<!DOCTYPE svg PUBLIC "-//W3C//DTD SVG 20010904//EN"
 "http://www.w3.org/TR/2001/REC-SVG-20010904/DTD/svg10.dtd">
<svg version="1.0" xmlns="http://www.w3.org/2000/svg"
 width="2480.000000pt" height="3508.000000pt" viewBox="0 0 2480.000000 3508.000000"
 preserveAspectRatio="xMidYMid meet">

<g transform="translate(0.000000,3508.000000) scale(0.100000,-0.100000)"
fill="#000000" stroke="none">
<path d="M15740 11063 c-25 -21 -99 -90 -165 -154 -111 -108 -273 -254 -975
-877 -146 -130 -327 -297 -404 -373 l-138 -137 -112 54 c-215 103 -415 152
-658 161 -97 4 -148 2 -148 -4 0 -6 -33 -13 -72 -17 -337 -32 -653 -147 -913
-333 l-71 -50 -74 85 c-145 165 -558 572 -785 773 -295 262 -645 593 -645 611
0 5 -8 7 -19 3 -10 -3 -30 -1 -45 4 -29 12 -35 1 -10 -20 14 -12 5 -15 -66
-26 -156 -25 -265 -83 -411 -222 -195 -184 -284 -337 -364 -619 -83 -296 -151
-395 -463 -669 -168 -148 -312 -298 -378 -394 -49 -70 -94 -178 -126 -303 -14
-57 -26 -87 -37 -89 -9 -3 16 -5 54 -6 137 -3 236 -38 354 -127 116 -87 174
-184 255 -428 65 -196 98 -260 171 -333 69 -69 107 -83 181 -66 l43 10 4 -31
4 -31 1 33 c2 28 8 36 32 45 17 6 30 15 30 19 0 4 -11 3 -25 -2 -24 -9 -25 -8
-25 27 0 96 50 230 133 356 126 190 236 291 590 540 152 107 243 189 301 271
62 87 83 131 142 308 82 241 133 335 258 465 127 135 230 205 318 218 26 4 53
13 59 21 28 34 40 24 428 -398 24 -27 50 -48 57 -48 8 0 14 -2 14 -5 0 -2 -41
-44 -91 -92 -439 -423 -633 -1015 -524 -1592 48 -249 178 -525 339 -714 l56
-67 -142 -138 c-236 -227 -294 -281 -513 -474 -328 -289 -526 -480 -513 -494
19 -18 712 584 1038 902 l165 161 85 -74 c219 -192 479 -320 780 -384 89 -19
137 -23 315 -23 222 -1 284 6 459 51 189 49 374 132 552 247 l85 56 52 -53
c28 -28 105 -117 169 -197 64 -80 189 -228 278 -330 89 -102 218 -250 287
-330 69 -80 131 -146 137 -148 7 -1 17 8 23 21 10 21 4 32 -55 103 -37 44
-128 147 -202 230 -74 82 -222 249 -327 370 -106 122 -225 252 -264 289 -59
55 -69 69 -58 79 8 7 51 45 97 85 251 222 456 564 541 899 40 158 54 295 48
482 -9 270 -53 445 -172 685 -109 220 -283 426 -482 570 l-81 59 33 40 c18 23
83 88 144 144 110 103 111 104 192 123 108 26 179 24 284 -6 236 -69 452 -223
575 -412 63 -96 123 -220 116 -240 -3 -8 -2 -12 3 -9 5 3 33 -54 62 -127 162
-407 303 -599 526 -712 37 -19 136 -57 218 -86 206 -70 293 -117 381 -204 60
-60 73 -79 91 -135 11 -36 23 -58 26 -50 28 85 45 116 91 172 89 107 212 199
376 280 80 39 172 89 206 110 83 52 169 144 204 220 36 78 75 221 95 353 8 55
19 115 25 134 13 45 6 51 -15 12 -8 -17 -18 -31 -20 -31 -3 0 -33 11 -66 25
-150 61 -233 180 -337 485 -27 80 -61 170 -77 200 -59 117 -179 240 -329 335
-32 20 -182 102 -335 182 -152 79 -312 169 -356 198 -212 141 -402 353 -456
508 -11 33 -11 41 4 66 32 54 19 55 -43 4z m-350 -432 c0 -33 83 -156 154
-229 39 -40 111 -98 159 -129 97 -62 95 -55 44 -142 -64 -109 -194 -213 -320
-256 l-55 -18 -83 48 c-46 27 -115 75 -154 105 -75 61 -218 208 -213 221 6 16
453 426 461 422 4 -2 7 -12 7 -22z m-5198 -57 c69 -39 133 -96 213 -192 l52
-62 -52 -128 c-29 -70 -65 -159 -80 -199 l-27 -72 -49 73 c-75 113 -207 224
-335 283 -30 13 -54 30 -54 37 0 19 104 142 189 224 41 39 76 72 77 72 1 0 31
-16 66 -36z m5967 -64 c92 -70 208 -140 383 -230 l126 -65 -79 -36 c-60 -29
-98 -57 -167 -123 l-89 -86 -257 124 c-146 71 -256 130 -256 138 0 16 78 143
127 208 45 60 112 130 124 130 5 0 45 -27 88 -60z m-5307 -57 l87 -86 -18 -26
c-31 -46 -82 -172 -157 -390 -40 -117 -75 -216 -78 -219 -9 -8 -43 77 -71 176
-14 51 -36 133 -50 184 -14 51 -40 121 -56 155 l-30 64 30 47 c49 77 120 140
181 161 30 10 59 19 65 20 5 0 49 -38 97 -86z m-1012 -566 c100 -67 189 -163
239 -258 l31 -57 -22 -28 c-32 -43 -116 -129 -180 -185 l-57 -50 -27 42 c-56
90 -208 219 -257 219 -12 0 -6 18 29 88 24 48 58 138 76 200 l31 112 46 -27
c25 -14 66 -40 91 -56z m6621 -18 c52 -34 114 -89 155 -133 69 -78 143 -175
144 -189 0 -5 -11 -23 -24 -40 -13 -18 -51 -89 -84 -158 -62 -129 -119 -205
-196 -260 l-38 -28 -55 87 c-30 48 -70 106 -89 129 -43 52 -157 164 -202 196
l-33 25 25 6 c55 14 109 87 175 237 35 79 70 158 79 176 19 37 14 39 143 -48z
m-6142 -65 c12 -36 30 -129 41 -207 11 -78 28 -175 37 -215 l17 -73 -100 -100
-99 -99 -6 47 c-4 27 -12 93 -19 148 -7 55 -23 136 -36 181 l-23 82 53 89 c29
48 65 116 81 151 16 34 30 62 31 62 2 0 12 -30 23 -66z m5304 -88 c224 -110
387 -201 387 -216 0 -3 -58 -20 -129 -39 -71 -18 -154 -46 -185 -61 -65 -33
-136 -97 -174 -157 -15 -24 -30 -43 -33 -43 -3 0 -16 24 -30 53 -60 129 -187
286 -308 379 l-35 26 55 54 c42 41 173 125 197 128 2 0 117 -56 255 -124z
m1599 49 c14 -28 52 -124 83 -214 31 -90 65 -182 76 -203 22 -43 18 -58 -14
-58 -21 0 -146 -54 -157 -68 -3 -4 -17 -13 -32 -21 -15 -8 -61 -45 -102 -83
l-74 -68 -30 73 c-17 39 -51 124 -77 187 -26 63 -62 141 -81 173 -19 32 -34
61 -34 65 0 14 75 85 145 138 74 56 229 135 255 131 8 -1 27 -25 42 -52z
m-6353 -308 l116 -117 -19 -38 c-11 -20 -48 -118 -82 -217 -41 -121 -67 -181
-77 -183 -9 -2 -40 9 -71 23 -97 46 -254 235 -288 347 -11 36 -10 39 45 105
59 73 155 221 177 272 l13 32 35 -53 c19 -29 87 -106 151 -171z m-995 -231
c24 -75 36 -165 36 -272 l0 -91 -119 -119 -118 -119 -16 96 c-23 139 -51 205
-132 315 -16 21 -12 24 150 133 91 61 169 111 174 111 4 0 16 -24 25 -54z
m-561 -70 c49 -22 107 -52 129 -69 l41 -29 -81 -74 c-87 -80 -187 -207 -177
-224 4 -6 1 -9 -7 -8 -7 2 -12 -4 -12 -13 2 -22 -28 -19 -82 9 -23 12 -88 40
-145 62 -57 23 -108 45 -112 49 -10 10 116 154 223 255 80 75 119 101 130 87
3 -4 45 -24 93 -45z m916 -191 c11 -38 35 -96 53 -128 36 -63 127 -176 143
-176 6 -1 16 -10 23 -22 7 -11 33 -29 58 -40 24 -11 44 -22 44 -24 0 -2 -75
-58 -166 -125 -195 -141 -183 -140 -284 -34 -70 73 -128 186 -154 301 -30 133
-34 124 117 246 110 89 133 104 139 90 4 -10 16 -49 27 -88z m6233 -43 c26
-64 66 -175 88 -247 48 -151 53 -137 -74 -186 -127 -49 -287 -127 -329 -160
l-37 -30 -60 32 c-61 32 -201 142 -216 170 -5 8 -35 54 -66 101 -32 47 -58 93
-58 101 0 28 136 162 197 194 68 36 189 75 288 93 39 7 97 21 130 30 33 10 67
18 75 19 10 0 31 -38 62 -117z m583 6 c22 -45 66 -115 98 -154 95 -120 188
-188 323 -239 l85 -32 -41 -37 c-58 -52 -134 -99 -255 -157 -118 -57 -183 -98
-267 -171 l-58 -50 -41 28 c-48 33 -149 142 -149 160 0 7 -4 14 -9 16 -9 3
-91 161 -110 212 -9 22 -6 27 32 49 68 40 139 124 204 243 62 112 129 214 141
214 4 0 25 -37 47 -82z m-7699 -362 c38 -40 79 -98 100 -140 l35 -71 -55 -115
c-30 -64 -65 -150 -77 -192 l-23 -77 -36 87 c-46 112 -98 189 -172 256 l-59
54 15 65 c16 69 52 155 92 225 l25 42 46 -32 c25 -18 74 -64 109 -102z m338
-110 c29 -150 88 -270 185 -375 23 -25 41 -48 41 -52 0 -4 -16 -31 -36 -60
-45 -67 -82 -138 -105 -204 -10 -27 -22 -50 -28 -50 -24 0 -84 72 -121 148
-29 58 -46 112 -60 187 -11 58 -29 149 -41 203 l-20 98 32 52 c17 29 53 80 78
114 53 71 50 73 75 -61z"/>
</g>
</svg>
